<svg xmlns="http://www.w3.org/2000/svg" xmlns:xlink="http://www.w3.org/1999/xlink" viewBox="0,0,256,256" width="100px" height="100px"><g fill="#ffffff" fill-rule="nonzero" stroke="none" stroke-width="1" stroke-linecap="butt" stroke-linejoin="miter" stroke-miterlimit="10" stroke-dasharray="" stroke-dashoffset="0" font-family="none" font-weight="none" font-size="none" text-anchor="none" style="mix-blend-mode: normal"><g transform="scale(5.12,5.12)"><path d="M20.36523,3.42383l-0.86523,0.5l-4,2.31055l-5,2.88867l-0.86523,0.5l0.5,0.86719l7.5,12.99219l-7.13281,4.11133l-0.86719,0.5l0.5,0.86719l4,6.92969l0.5,0.86523l0.86719,-0.5l7.13281,-4.11914l7.5,12.99414l0.5,0.86523l0.86719,-0.5l5,-2.89062l4,-2.30859l0.86523,-0.5l-0.5,-0.86719l-7.5,-12.98438l7.13477,-4.11914l0.86523,-0.5l-0.5,-0.86523l-4,-6.93164l-0.5,-0.86524l-0.86523,0.5l-7.13477,4.11914l-7.5,-12.99414zM19.9082,5.13086l7.75,13.42773l-3.56641,2.05859l-7.75,-13.42578zM15.9082,7.44141l7.875,13.64258c0.03311,0.05754 0.08775,0.09956 0.15186,0.11678c0.06412,0.01722 0.13245,0.00823 0.18993,-0.02498l3.98438,-2.30078c0.0053,-0.00242 0.01051,-0.00503 0.01563,-0.00781l3.7832,-2.18555l3.75195,6.49609l-3.78516,2.18555c-0.00739,0.00419 -0.01456,0.00875 -0.02148,0.01367l-3.97852,2.29297c-0.05754,0.03311 -0.09956,0.08775 -0.11678,0.15186c-0.01722,0.06412 -0.00823,0.13245 0.02498,0.18993l7.875,13.63672l-4.56641,2.64062l-7.875,-13.64453c-0.03311,-0.05754 -0.08775,-0.09956 -0.15186,-0.11678c-0.06412,-0.01722 -0.13245,-0.00823 -0.18993,0.02498l-7.7832,4.49609l-3.75,-6.49805l7.7832,-4.48437c0.05754,-0.03311 0.09956,-0.08775 0.11678,-0.15186c0.01722,-0.06412 0.00823,-0.13245 -0.02498,-0.18993l-7.875,-13.64258zM35.9082,14.37109l3.75,6.49805l-3.56445,2.05859l-3.75195,-6.49609zM31.9082,25.92188l7.75,13.41602l-3.56641,2.06055l-7.75,-13.41992z"></path></g></g></svg>