<svg xmlns="http://www.w3.org/2000/svg" xmlns:xlink="http://www.w3.org/1999/xlink" viewBox="0,0,256,256" width="100px" height="100px"><g fill="#ffffff" fill-rule="nonzero" stroke="none" stroke-width="1" stroke-linecap="butt" stroke-linejoin="miter" stroke-miterlimit="10" stroke-dasharray="" stroke-dashoffset="0" font-family="none" font-weight="none" font-size="none" text-anchor="none" style="mix-blend-mode: normal"><g transform="scale(5.12,5.12)"><path d="M15.00195,0.75586l-0.5,0.28711l-4,2.30078l-0.50195,0.28711v0.58008v4.61914v0.57617l0.5,0.28906l24,13.86133l0.5,0.28906l0.5,-0.28906l4,-2.31055l0.5,-0.28906v-0.57617v-4.62109v-0.57812l-0.5,-0.28906l-24,-13.84961zM15,2.19531l23.5,13.56641l-3.5,2.02148l-23.49805,-13.56836zM11.25,4.64453l23.5,13.57227v4.04102l-23.5,-13.56641zM15,13.45508l-0.5,0.28906l-4,2.31055l-0.5,0.28906v0.57617v4.61914v0.57813l0.5,0.28906l24,13.85156l0.5,0.28906l0.5,-0.28906l4,-2.31055l0.5,-0.28906v-0.57812v-4.61914v-0.57813l-0.5,-0.28906l-24,-13.85156zM15,14.89648l23.50195,13.56836l-3.50195,2.01953l-23.49805,-13.56836zM38.75,16.19531v4.04102l-3.5,2.02148v-4.04102zM11.25,17.34766l23.5,13.57031v4.04102l-23.5,-13.56641zM15,26.1543l-0.5,0.28906l-4,2.31055l-0.5,0.28906v0.57617v4.62109v0.57813l0.5,0.28906l24,13.84961l0.5,0.28906l0.5,-0.28906l4,-2.31055l0.5,-0.28906v-0.57812v-4.60937v-0.57617l-0.5,-0.28906l-24,-13.86133zM15,27.59766l23.5,13.56836l-3.5,2.01953l-23.49609,-13.56836zM38.75,28.89648v4.04297l-3.5,2.01953v-4.04102zM11.25,30.04883l23.5,13.57031v4.04102l-23.5,-13.56641zM38.75,41.59961v4.04102l-3.5,2.01953v-4.04102z"></path></g></g></svg>